<mxfile host="app.diagrams.net" modified="2023-12-02T19:01:07.109Z" agent="Mozilla/5.0 (Windows NT 10.0; Win64; x64) AppleWebKit/537.36 (KHTML, like Gecko) Chrome/118.0.0.0 Safari/537.36 OPR/104.0.0.0" etag="biSEKxdPFcCCaJ5Qa4xw" version="22.1.5" type="github">
  <diagram id="R2lEEEUBdFMjLlhIrx00" name="Page-1">
    <mxGraphModel dx="1522" dy="723" grid="1" gridSize="10" guides="1" tooltips="1" connect="1" arrows="1" fold="1" page="1" pageScale="1" pageWidth="850" pageHeight="1100" math="0" shadow="0" extFonts="Permanent Marker^https://fonts.googleapis.com/css?family=Permanent+Marker">
      <root>
        <mxCell id="0" />
        <mxCell id="1" style="locked=1;" parent="0" />
        <mxCell id="PT5gaRFyH0BLPBNkBBfy-8" style="edgeStyle=orthogonalEdgeStyle;rounded=0;orthogonalLoop=1;jettySize=auto;html=1;entryX=0.5;entryY=1;entryDx=0;entryDy=0;" edge="1" parent="1" source="PT5gaRFyH0BLPBNkBBfy-1" target="PT5gaRFyH0BLPBNkBBfy-7">
          <mxGeometry relative="1" as="geometry" />
        </mxCell>
        <mxCell id="PT5gaRFyH0BLPBNkBBfy-9" style="edgeStyle=orthogonalEdgeStyle;rounded=0;orthogonalLoop=1;jettySize=auto;html=1;entryX=0.5;entryY=1;entryDx=0;entryDy=0;" edge="1" parent="1" source="PT5gaRFyH0BLPBNkBBfy-1" target="PT5gaRFyH0BLPBNkBBfy-5">
          <mxGeometry relative="1" as="geometry">
            <Array as="points">
              <mxPoint x="190" y="120" />
              <mxPoint x="190" y="120" />
            </Array>
          </mxGeometry>
        </mxCell>
        <mxCell id="PT5gaRFyH0BLPBNkBBfy-58" style="edgeStyle=orthogonalEdgeStyle;rounded=0;orthogonalLoop=1;jettySize=auto;html=1;exitX=0.5;exitY=1;exitDx=0;exitDy=0;entryX=0.5;entryY=0;entryDx=0;entryDy=0;" edge="1" parent="1" source="PT5gaRFyH0BLPBNkBBfy-1" target="PT5gaRFyH0BLPBNkBBfy-56">
          <mxGeometry relative="1" as="geometry">
            <Array as="points">
              <mxPoint x="210" y="250" />
              <mxPoint x="260" y="250" />
            </Array>
          </mxGeometry>
        </mxCell>
        <mxCell id="PT5gaRFyH0BLPBNkBBfy-61" value="0,n" style="edgeLabel;html=1;align=center;verticalAlign=middle;resizable=0;points=[];" vertex="1" connectable="0" parent="PT5gaRFyH0BLPBNkBBfy-58">
          <mxGeometry x="-0.8134" relative="1" as="geometry">
            <mxPoint as="offset" />
          </mxGeometry>
        </mxCell>
        <mxCell id="PT5gaRFyH0BLPBNkBBfy-1" value="Departamento" style="whiteSpace=wrap;html=1;align=center;" vertex="1" parent="1">
          <mxGeometry x="160" y="130" width="100" height="40" as="geometry" />
        </mxCell>
        <mxCell id="PT5gaRFyH0BLPBNkBBfy-27" style="edgeStyle=orthogonalEdgeStyle;rounded=0;orthogonalLoop=1;jettySize=auto;html=1;exitX=0;exitY=1;exitDx=0;exitDy=0;entryX=1;entryY=0.5;entryDx=0;entryDy=0;" edge="1" parent="1" source="PT5gaRFyH0BLPBNkBBfy-3" target="PT5gaRFyH0BLPBNkBBfy-13">
          <mxGeometry relative="1" as="geometry" />
        </mxCell>
        <mxCell id="PT5gaRFyH0BLPBNkBBfy-28" style="edgeStyle=orthogonalEdgeStyle;rounded=0;orthogonalLoop=1;jettySize=auto;html=1;exitX=0;exitY=1;exitDx=0;exitDy=0;entryX=1;entryY=0.5;entryDx=0;entryDy=0;" edge="1" parent="1" source="PT5gaRFyH0BLPBNkBBfy-3" target="PT5gaRFyH0BLPBNkBBfy-14">
          <mxGeometry relative="1" as="geometry" />
        </mxCell>
        <mxCell id="PT5gaRFyH0BLPBNkBBfy-29" style="edgeStyle=orthogonalEdgeStyle;rounded=0;orthogonalLoop=1;jettySize=auto;html=1;exitX=0;exitY=1;exitDx=0;exitDy=0;entryX=1;entryY=0.5;entryDx=0;entryDy=0;" edge="1" parent="1" source="PT5gaRFyH0BLPBNkBBfy-3" target="PT5gaRFyH0BLPBNkBBfy-16">
          <mxGeometry relative="1" as="geometry" />
        </mxCell>
        <mxCell id="PT5gaRFyH0BLPBNkBBfy-30" style="edgeStyle=orthogonalEdgeStyle;rounded=0;orthogonalLoop=1;jettySize=auto;html=1;exitX=0;exitY=1;exitDx=0;exitDy=0;entryX=1;entryY=0.5;entryDx=0;entryDy=0;" edge="1" parent="1" source="PT5gaRFyH0BLPBNkBBfy-3" target="PT5gaRFyH0BLPBNkBBfy-12">
          <mxGeometry relative="1" as="geometry" />
        </mxCell>
        <mxCell id="PT5gaRFyH0BLPBNkBBfy-31" style="edgeStyle=orthogonalEdgeStyle;rounded=0;orthogonalLoop=1;jettySize=auto;html=1;exitX=0;exitY=1;exitDx=0;exitDy=0;entryX=0;entryY=0.5;entryDx=0;entryDy=0;" edge="1" parent="1" source="PT5gaRFyH0BLPBNkBBfy-3" target="PT5gaRFyH0BLPBNkBBfy-11">
          <mxGeometry relative="1" as="geometry" />
        </mxCell>
        <mxCell id="PT5gaRFyH0BLPBNkBBfy-32" style="edgeStyle=orthogonalEdgeStyle;rounded=0;orthogonalLoop=1;jettySize=auto;html=1;exitX=0;exitY=1;exitDx=0;exitDy=0;entryX=0;entryY=0.5;entryDx=0;entryDy=0;" edge="1" parent="1" source="PT5gaRFyH0BLPBNkBBfy-3" target="PT5gaRFyH0BLPBNkBBfy-10">
          <mxGeometry relative="1" as="geometry" />
        </mxCell>
        <mxCell id="PT5gaRFyH0BLPBNkBBfy-33" style="edgeStyle=orthogonalEdgeStyle;rounded=0;orthogonalLoop=1;jettySize=auto;html=1;exitX=0;exitY=1;exitDx=0;exitDy=0;entryX=0;entryY=0.5;entryDx=0;entryDy=0;" edge="1" parent="1" source="PT5gaRFyH0BLPBNkBBfy-3" target="PT5gaRFyH0BLPBNkBBfy-20">
          <mxGeometry relative="1" as="geometry" />
        </mxCell>
        <mxCell id="PT5gaRFyH0BLPBNkBBfy-34" style="edgeStyle=orthogonalEdgeStyle;rounded=0;orthogonalLoop=1;jettySize=auto;html=1;exitX=0;exitY=1;exitDx=0;exitDy=0;entryX=0;entryY=0.5;entryDx=0;entryDy=0;" edge="1" parent="1" source="PT5gaRFyH0BLPBNkBBfy-3" target="PT5gaRFyH0BLPBNkBBfy-19">
          <mxGeometry relative="1" as="geometry" />
        </mxCell>
        <mxCell id="PT5gaRFyH0BLPBNkBBfy-35" style="edgeStyle=orthogonalEdgeStyle;rounded=0;orthogonalLoop=1;jettySize=auto;html=1;exitX=0;exitY=1;exitDx=0;exitDy=0;entryX=0;entryY=0.5;entryDx=0;entryDy=0;" edge="1" parent="1" source="PT5gaRFyH0BLPBNkBBfy-3" target="PT5gaRFyH0BLPBNkBBfy-21">
          <mxGeometry relative="1" as="geometry" />
        </mxCell>
        <mxCell id="PT5gaRFyH0BLPBNkBBfy-36" style="edgeStyle=orthogonalEdgeStyle;rounded=0;orthogonalLoop=1;jettySize=auto;html=1;exitX=0;exitY=1;exitDx=0;exitDy=0;entryX=0;entryY=0.5;entryDx=0;entryDy=0;" edge="1" parent="1" source="PT5gaRFyH0BLPBNkBBfy-3" target="PT5gaRFyH0BLPBNkBBfy-22">
          <mxGeometry relative="1" as="geometry" />
        </mxCell>
        <mxCell id="PT5gaRFyH0BLPBNkBBfy-37" style="edgeStyle=orthogonalEdgeStyle;rounded=0;orthogonalLoop=1;jettySize=auto;html=1;exitX=0;exitY=1;exitDx=0;exitDy=0;entryX=0;entryY=0.5;entryDx=0;entryDy=0;" edge="1" parent="1" source="PT5gaRFyH0BLPBNkBBfy-3" target="PT5gaRFyH0BLPBNkBBfy-24">
          <mxGeometry relative="1" as="geometry" />
        </mxCell>
        <mxCell id="PT5gaRFyH0BLPBNkBBfy-41" style="edgeStyle=orthogonalEdgeStyle;rounded=0;orthogonalLoop=1;jettySize=auto;html=1;entryX=1;entryY=0.5;entryDx=0;entryDy=0;" edge="1" parent="1" source="PT5gaRFyH0BLPBNkBBfy-3" target="PT5gaRFyH0BLPBNkBBfy-40">
          <mxGeometry relative="1" as="geometry">
            <Array as="points">
              <mxPoint x="360" y="560" />
            </Array>
          </mxGeometry>
        </mxCell>
        <mxCell id="PT5gaRFyH0BLPBNkBBfy-59" style="edgeStyle=orthogonalEdgeStyle;rounded=0;orthogonalLoop=1;jettySize=auto;html=1;entryX=0.5;entryY=1;entryDx=0;entryDy=0;" edge="1" parent="1" source="PT5gaRFyH0BLPBNkBBfy-3" target="PT5gaRFyH0BLPBNkBBfy-56">
          <mxGeometry relative="1" as="geometry" />
        </mxCell>
        <mxCell id="PT5gaRFyH0BLPBNkBBfy-62" value="1, 1" style="edgeLabel;html=1;align=center;verticalAlign=middle;resizable=0;points=[];" vertex="1" connectable="0" parent="PT5gaRFyH0BLPBNkBBfy-59">
          <mxGeometry x="-0.8133" relative="1" as="geometry">
            <mxPoint as="offset" />
          </mxGeometry>
        </mxCell>
        <mxCell id="PT5gaRFyH0BLPBNkBBfy-65" style="edgeStyle=orthogonalEdgeStyle;rounded=0;orthogonalLoop=1;jettySize=auto;html=1;entryX=0.5;entryY=1;entryDx=0;entryDy=0;" edge="1" parent="1" source="PT5gaRFyH0BLPBNkBBfy-3" target="PT5gaRFyH0BLPBNkBBfy-63">
          <mxGeometry relative="1" as="geometry" />
        </mxCell>
        <mxCell id="PT5gaRFyH0BLPBNkBBfy-67" value="0, n" style="edgeLabel;html=1;align=center;verticalAlign=middle;resizable=0;points=[];" vertex="1" connectable="0" parent="PT5gaRFyH0BLPBNkBBfy-65">
          <mxGeometry x="-0.7939" relative="1" as="geometry">
            <mxPoint as="offset" />
          </mxGeometry>
        </mxCell>
        <mxCell id="PT5gaRFyH0BLPBNkBBfy-3" value="Engenheiro" style="whiteSpace=wrap;html=1;align=center;" vertex="1" parent="1">
          <mxGeometry x="360" y="490" width="100" height="40" as="geometry" />
        </mxCell>
        <mxCell id="PT5gaRFyH0BLPBNkBBfy-43" style="edgeStyle=orthogonalEdgeStyle;rounded=0;orthogonalLoop=1;jettySize=auto;html=1;" edge="1" parent="1" source="PT5gaRFyH0BLPBNkBBfy-4" target="PT5gaRFyH0BLPBNkBBfy-42">
          <mxGeometry relative="1" as="geometry" />
        </mxCell>
        <mxCell id="PT5gaRFyH0BLPBNkBBfy-44" style="edgeStyle=orthogonalEdgeStyle;rounded=0;orthogonalLoop=1;jettySize=auto;html=1;entryX=0;entryY=0.5;entryDx=0;entryDy=0;" edge="1" parent="1" source="PT5gaRFyH0BLPBNkBBfy-4" target="PT5gaRFyH0BLPBNkBBfy-39">
          <mxGeometry relative="1" as="geometry" />
        </mxCell>
        <mxCell id="PT5gaRFyH0BLPBNkBBfy-45" style="edgeStyle=orthogonalEdgeStyle;rounded=0;orthogonalLoop=1;jettySize=auto;html=1;exitX=1;exitY=0.5;exitDx=0;exitDy=0;entryX=0;entryY=0.5;entryDx=0;entryDy=0;" edge="1" parent="1" source="PT5gaRFyH0BLPBNkBBfy-4" target="PT5gaRFyH0BLPBNkBBfy-38">
          <mxGeometry relative="1" as="geometry" />
        </mxCell>
        <mxCell id="PT5gaRFyH0BLPBNkBBfy-47" style="edgeStyle=orthogonalEdgeStyle;rounded=0;orthogonalLoop=1;jettySize=auto;html=1;exitX=1;exitY=0.5;exitDx=0;exitDy=0;entryX=0;entryY=0.5;entryDx=0;entryDy=0;" edge="1" parent="1" source="PT5gaRFyH0BLPBNkBBfy-4" target="PT5gaRFyH0BLPBNkBBfy-46">
          <mxGeometry relative="1" as="geometry" />
        </mxCell>
        <mxCell id="PT5gaRFyH0BLPBNkBBfy-49" style="edgeStyle=orthogonalEdgeStyle;rounded=0;orthogonalLoop=1;jettySize=auto;html=1;exitX=1;exitY=0.5;exitDx=0;exitDy=0;entryX=0;entryY=0.5;entryDx=0;entryDy=0;" edge="1" parent="1" source="PT5gaRFyH0BLPBNkBBfy-4" target="PT5gaRFyH0BLPBNkBBfy-48">
          <mxGeometry relative="1" as="geometry" />
        </mxCell>
        <mxCell id="PT5gaRFyH0BLPBNkBBfy-51" style="edgeStyle=orthogonalEdgeStyle;rounded=0;orthogonalLoop=1;jettySize=auto;html=1;exitX=1;exitY=0.5;exitDx=0;exitDy=0;entryX=0;entryY=0.5;entryDx=0;entryDy=0;" edge="1" parent="1" source="PT5gaRFyH0BLPBNkBBfy-4" target="PT5gaRFyH0BLPBNkBBfy-50">
          <mxGeometry relative="1" as="geometry" />
        </mxCell>
        <mxCell id="PT5gaRFyH0BLPBNkBBfy-66" style="edgeStyle=orthogonalEdgeStyle;rounded=0;orthogonalLoop=1;jettySize=auto;html=1;exitX=0.5;exitY=1;exitDx=0;exitDy=0;entryX=0.5;entryY=0;entryDx=0;entryDy=0;" edge="1" parent="1" source="PT5gaRFyH0BLPBNkBBfy-4" target="PT5gaRFyH0BLPBNkBBfy-63">
          <mxGeometry relative="1" as="geometry" />
        </mxCell>
        <mxCell id="PT5gaRFyH0BLPBNkBBfy-68" value="1, 1" style="edgeLabel;html=1;align=center;verticalAlign=middle;resizable=0;points=[];" vertex="1" connectable="0" parent="PT5gaRFyH0BLPBNkBBfy-66">
          <mxGeometry x="-0.8449" y="1" relative="1" as="geometry">
            <mxPoint as="offset" />
          </mxGeometry>
        </mxCell>
        <mxCell id="PT5gaRFyH0BLPBNkBBfy-4" value="PDF" style="whiteSpace=wrap;html=1;align=center;" vertex="1" parent="1">
          <mxGeometry x="550" y="130" width="100" height="40" as="geometry" />
        </mxCell>
        <mxCell id="PT5gaRFyH0BLPBNkBBfy-5" value="Nome" style="ellipse;whiteSpace=wrap;html=1;align=center;" vertex="1" parent="1">
          <mxGeometry x="140" y="30" width="100" height="40" as="geometry" />
        </mxCell>
        <mxCell id="PT5gaRFyH0BLPBNkBBfy-7" value="Id" style="ellipse;whiteSpace=wrap;html=1;align=center;fontStyle=4;" vertex="1" parent="1">
          <mxGeometry x="20" y="30" width="100" height="40" as="geometry" />
        </mxCell>
        <mxCell id="PT5gaRFyH0BLPBNkBBfy-10" value="Email" style="ellipse;whiteSpace=wrap;html=1;align=center;" vertex="1" parent="1">
          <mxGeometry x="400" y="660" width="100" height="40" as="geometry" />
        </mxCell>
        <mxCell id="PT5gaRFyH0BLPBNkBBfy-11" value="Telefone" style="ellipse;whiteSpace=wrap;html=1;align=center;" vertex="1" parent="1">
          <mxGeometry x="400" y="600" width="100" height="40" as="geometry" />
        </mxCell>
        <mxCell id="PT5gaRFyH0BLPBNkBBfy-12" value="Matricula" style="ellipse;whiteSpace=wrap;html=1;align=center;" vertex="1" parent="1">
          <mxGeometry x="130" y="600" width="100" height="40" as="geometry" />
        </mxCell>
        <mxCell id="PT5gaRFyH0BLPBNkBBfy-13" value="CPF" style="ellipse;whiteSpace=wrap;html=1;align=center;" vertex="1" parent="1">
          <mxGeometry x="130" y="660" width="100" height="40" as="geometry" />
        </mxCell>
        <mxCell id="PT5gaRFyH0BLPBNkBBfy-14" value="Nome completo" style="ellipse;whiteSpace=wrap;html=1;align=center;" vertex="1" parent="1">
          <mxGeometry x="130" y="720" width="100" height="40" as="geometry" />
        </mxCell>
        <mxCell id="PT5gaRFyH0BLPBNkBBfy-16" value="Data de Nascimento" style="ellipse;whiteSpace=wrap;html=1;align=center;" vertex="1" parent="1">
          <mxGeometry x="130" y="780" width="100" height="40" as="geometry" />
        </mxCell>
        <mxCell id="PT5gaRFyH0BLPBNkBBfy-19" value="Cidade" style="ellipse;whiteSpace=wrap;html=1;align=center;" vertex="1" parent="1">
          <mxGeometry x="400" y="830" width="100" height="40" as="geometry" />
        </mxCell>
        <mxCell id="PT5gaRFyH0BLPBNkBBfy-20" value="Estado" style="ellipse;whiteSpace=wrap;html=1;align=center;" vertex="1" parent="1">
          <mxGeometry x="400" y="770" width="100" height="40" as="geometry" />
        </mxCell>
        <mxCell id="PT5gaRFyH0BLPBNkBBfy-21" value="Rua" style="ellipse;whiteSpace=wrap;html=1;align=center;" vertex="1" parent="1">
          <mxGeometry x="400" y="890" width="100" height="40" as="geometry" />
        </mxCell>
        <mxCell id="PT5gaRFyH0BLPBNkBBfy-22" value="Numero" style="ellipse;whiteSpace=wrap;html=1;align=center;" vertex="1" parent="1">
          <mxGeometry x="400" y="950" width="100" height="40" as="geometry" />
        </mxCell>
        <mxCell id="PT5gaRFyH0BLPBNkBBfy-24" value="Bairro" style="ellipse;whiteSpace=wrap;html=1;align=center;" vertex="1" parent="1">
          <mxGeometry x="400" y="1010" width="100" height="40" as="geometry" />
        </mxCell>
        <mxCell id="PT5gaRFyH0BLPBNkBBfy-25" style="edgeStyle=orthogonalEdgeStyle;rounded=0;orthogonalLoop=1;jettySize=auto;html=1;exitX=0.5;exitY=1;exitDx=0;exitDy=0;" edge="1" parent="1" source="PT5gaRFyH0BLPBNkBBfy-16" target="PT5gaRFyH0BLPBNkBBfy-16">
          <mxGeometry relative="1" as="geometry" />
        </mxCell>
        <mxCell id="PT5gaRFyH0BLPBNkBBfy-38" value="Nome" style="ellipse;whiteSpace=wrap;html=1;align=center;" vertex="1" parent="1">
          <mxGeometry x="710" y="130" width="100" height="40" as="geometry" />
        </mxCell>
        <mxCell id="PT5gaRFyH0BLPBNkBBfy-39" value="Extensão" style="ellipse;whiteSpace=wrap;html=1;align=center;" vertex="1" parent="1">
          <mxGeometry x="710" y="50" width="100" height="40" as="geometry" />
        </mxCell>
        <mxCell id="PT5gaRFyH0BLPBNkBBfy-40" value="Id" style="ellipse;whiteSpace=wrap;html=1;align=center;fontStyle=4;" vertex="1" parent="1">
          <mxGeometry x="130" y="540" width="100" height="40" as="geometry" />
        </mxCell>
        <mxCell id="PT5gaRFyH0BLPBNkBBfy-42" value="Id" style="ellipse;whiteSpace=wrap;html=1;align=center;fontStyle=4;" vertex="1" parent="1">
          <mxGeometry x="550" y="30" width="100" height="40" as="geometry" />
        </mxCell>
        <mxCell id="PT5gaRFyH0BLPBNkBBfy-46" value="Tamanho" style="ellipse;whiteSpace=wrap;html=1;align=center;" vertex="1" parent="1">
          <mxGeometry x="710" y="210" width="100" height="40" as="geometry" />
        </mxCell>
        <mxCell id="PT5gaRFyH0BLPBNkBBfy-48" value="Data" style="ellipse;whiteSpace=wrap;html=1;align=center;" vertex="1" parent="1">
          <mxGeometry x="710" y="290" width="100" height="40" as="geometry" />
        </mxCell>
        <mxCell id="PT5gaRFyH0BLPBNkBBfy-50" value="Arquivo" style="ellipse;whiteSpace=wrap;html=1;align=center;" vertex="1" parent="1">
          <mxGeometry x="710" y="370" width="100" height="40" as="geometry" />
        </mxCell>
        <mxCell id="PT5gaRFyH0BLPBNkBBfy-56" value="Pertence" style="shape=rhombus;perimeter=rhombusPerimeter;whiteSpace=wrap;html=1;align=center;" vertex="1" parent="1">
          <mxGeometry x="200" y="330" width="120" height="60" as="geometry" />
        </mxCell>
        <mxCell id="PT5gaRFyH0BLPBNkBBfy-63" value="Pertence" style="shape=rhombus;perimeter=rhombusPerimeter;whiteSpace=wrap;html=1;align=center;" vertex="1" parent="1">
          <mxGeometry x="480" y="330" width="120" height="60" as="geometry" />
        </mxCell>
        <mxCell id="PT5gaRFyH0BLPBNkBBfy-69" value="Departamento" style="swimlane;fontStyle=0;childLayout=stackLayout;horizontal=1;startSize=26;horizontalStack=0;resizeParent=1;resizeParentMax=0;resizeLast=0;collapsible=1;marginBottom=0;align=center;fontSize=14;" vertex="1" parent="1">
          <mxGeometry x="930" y="50" width="160" height="86" as="geometry" />
        </mxCell>
        <mxCell id="PT5gaRFyH0BLPBNkBBfy-70" value="Id: PK" style="text;strokeColor=none;fillColor=none;spacingLeft=4;spacingRight=4;overflow=hidden;rotatable=0;points=[[0,0.5],[1,0.5]];portConstraint=eastwest;fontSize=12;whiteSpace=wrap;html=1;" vertex="1" parent="PT5gaRFyH0BLPBNkBBfy-69">
          <mxGeometry y="26" width="160" height="30" as="geometry" />
        </mxCell>
        <mxCell id="PT5gaRFyH0BLPBNkBBfy-71" value="Nome: Varchar()" style="text;strokeColor=none;fillColor=none;spacingLeft=4;spacingRight=4;overflow=hidden;rotatable=0;points=[[0,0.5],[1,0.5]];portConstraint=eastwest;fontSize=12;whiteSpace=wrap;html=1;" vertex="1" parent="PT5gaRFyH0BLPBNkBBfy-69">
          <mxGeometry y="56" width="160" height="30" as="geometry" />
        </mxCell>
        <mxCell id="PT5gaRFyH0BLPBNkBBfy-73" value="Engenheiro" style="swimlane;fontStyle=0;childLayout=stackLayout;horizontal=1;startSize=26;horizontalStack=0;resizeParent=1;resizeParentMax=0;resizeLast=0;collapsible=1;marginBottom=0;align=center;fontSize=14;" vertex="1" parent="1">
          <mxGeometry x="1160" y="50" width="160" height="416" as="geometry">
            <mxRectangle x="1160" y="50" width="110" height="30" as="alternateBounds" />
          </mxGeometry>
        </mxCell>
        <mxCell id="PT5gaRFyH0BLPBNkBBfy-74" value="Id: PK" style="text;strokeColor=none;fillColor=none;spacingLeft=4;spacingRight=4;overflow=hidden;rotatable=0;points=[[0,0.5],[1,0.5]];portConstraint=eastwest;fontSize=12;whiteSpace=wrap;html=1;" vertex="1" parent="PT5gaRFyH0BLPBNkBBfy-73">
          <mxGeometry y="26" width="160" height="30" as="geometry" />
        </mxCell>
        <mxCell id="PT5gaRFyH0BLPBNkBBfy-88" value="Id_departamento: FK" style="text;strokeColor=none;fillColor=none;spacingLeft=4;spacingRight=4;overflow=hidden;rotatable=0;points=[[0,0.5],[1,0.5]];portConstraint=eastwest;fontSize=12;whiteSpace=wrap;html=1;" vertex="1" parent="PT5gaRFyH0BLPBNkBBfy-73">
          <mxGeometry y="56" width="160" height="30" as="geometry" />
        </mxCell>
        <mxCell id="PT5gaRFyH0BLPBNkBBfy-75" value="CPF: Varchar()" style="text;strokeColor=none;fillColor=none;spacingLeft=4;spacingRight=4;overflow=hidden;rotatable=0;points=[[0,0.5],[1,0.5]];portConstraint=eastwest;fontSize=12;whiteSpace=wrap;html=1;" vertex="1" parent="PT5gaRFyH0BLPBNkBBfy-73">
          <mxGeometry y="86" width="160" height="30" as="geometry" />
        </mxCell>
        <mxCell id="PT5gaRFyH0BLPBNkBBfy-87" value="Matricula: Number" style="text;strokeColor=none;fillColor=none;spacingLeft=4;spacingRight=4;overflow=hidden;rotatable=0;points=[[0,0.5],[1,0.5]];portConstraint=eastwest;fontSize=12;whiteSpace=wrap;html=1;" vertex="1" parent="PT5gaRFyH0BLPBNkBBfy-73">
          <mxGeometry y="116" width="160" height="30" as="geometry" />
        </mxCell>
        <mxCell id="PT5gaRFyH0BLPBNkBBfy-86" value="Nome completo: Varchar()" style="text;strokeColor=none;fillColor=none;spacingLeft=4;spacingRight=4;overflow=hidden;rotatable=0;points=[[0,0.5],[1,0.5]];portConstraint=eastwest;fontSize=12;whiteSpace=wrap;html=1;" vertex="1" parent="PT5gaRFyH0BLPBNkBBfy-73">
          <mxGeometry y="146" width="160" height="30" as="geometry" />
        </mxCell>
        <mxCell id="PT5gaRFyH0BLPBNkBBfy-92" value="Data de nascimento: Date" style="text;strokeColor=none;fillColor=none;spacingLeft=4;spacingRight=4;overflow=hidden;rotatable=0;points=[[0,0.5],[1,0.5]];portConstraint=eastwest;fontSize=12;whiteSpace=wrap;html=1;" vertex="1" parent="PT5gaRFyH0BLPBNkBBfy-73">
          <mxGeometry y="176" width="160" height="30" as="geometry" />
        </mxCell>
        <mxCell id="PT5gaRFyH0BLPBNkBBfy-93" value="Telefone: Varchar()" style="text;strokeColor=none;fillColor=none;spacingLeft=4;spacingRight=4;overflow=hidden;rotatable=0;points=[[0,0.5],[1,0.5]];portConstraint=eastwest;fontSize=12;whiteSpace=wrap;html=1;" vertex="1" parent="PT5gaRFyH0BLPBNkBBfy-73">
          <mxGeometry y="206" width="160" height="30" as="geometry" />
        </mxCell>
        <mxCell id="PT5gaRFyH0BLPBNkBBfy-94" value="Email: Varchar()" style="text;strokeColor=none;fillColor=none;spacingLeft=4;spacingRight=4;overflow=hidden;rotatable=0;points=[[0,0.5],[1,0.5]];portConstraint=eastwest;fontSize=12;whiteSpace=wrap;html=1;" vertex="1" parent="PT5gaRFyH0BLPBNkBBfy-73">
          <mxGeometry y="236" width="160" height="30" as="geometry" />
        </mxCell>
        <mxCell id="PT5gaRFyH0BLPBNkBBfy-97" value="Estado: Varchar()" style="text;strokeColor=none;fillColor=none;spacingLeft=4;spacingRight=4;overflow=hidden;rotatable=0;points=[[0,0.5],[1,0.5]];portConstraint=eastwest;fontSize=12;whiteSpace=wrap;html=1;" vertex="1" parent="PT5gaRFyH0BLPBNkBBfy-73">
          <mxGeometry y="266" width="160" height="30" as="geometry" />
        </mxCell>
        <mxCell id="PT5gaRFyH0BLPBNkBBfy-96" value="Cidade: Varchar()" style="text;strokeColor=none;fillColor=none;spacingLeft=4;spacingRight=4;overflow=hidden;rotatable=0;points=[[0,0.5],[1,0.5]];portConstraint=eastwest;fontSize=12;whiteSpace=wrap;html=1;" vertex="1" parent="PT5gaRFyH0BLPBNkBBfy-73">
          <mxGeometry y="296" width="160" height="30" as="geometry" />
        </mxCell>
        <mxCell id="PT5gaRFyH0BLPBNkBBfy-95" value="Rua: Varchar()" style="text;strokeColor=none;fillColor=none;spacingLeft=4;spacingRight=4;overflow=hidden;rotatable=0;points=[[0,0.5],[1,0.5]];portConstraint=eastwest;fontSize=12;whiteSpace=wrap;html=1;" vertex="1" parent="PT5gaRFyH0BLPBNkBBfy-73">
          <mxGeometry y="326" width="160" height="30" as="geometry" />
        </mxCell>
        <mxCell id="PT5gaRFyH0BLPBNkBBfy-91" value="Numero: Varchar()" style="text;strokeColor=none;fillColor=none;spacingLeft=4;spacingRight=4;overflow=hidden;rotatable=0;points=[[0,0.5],[1,0.5]];portConstraint=eastwest;fontSize=12;whiteSpace=wrap;html=1;" vertex="1" parent="PT5gaRFyH0BLPBNkBBfy-73">
          <mxGeometry y="356" width="160" height="30" as="geometry" />
        </mxCell>
        <mxCell id="PT5gaRFyH0BLPBNkBBfy-90" value="Bairro: Varchar()" style="text;strokeColor=none;fillColor=none;spacingLeft=4;spacingRight=4;overflow=hidden;rotatable=0;points=[[0,0.5],[1,0.5]];portConstraint=eastwest;fontSize=12;whiteSpace=wrap;html=1;" vertex="1" parent="PT5gaRFyH0BLPBNkBBfy-73">
          <mxGeometry y="386" width="160" height="30" as="geometry" />
        </mxCell>
        <mxCell id="PT5gaRFyH0BLPBNkBBfy-77" value="PDF" style="swimlane;fontStyle=0;childLayout=stackLayout;horizontal=1;startSize=26;horizontalStack=0;resizeParent=1;resizeParentMax=0;resizeLast=0;collapsible=1;marginBottom=0;align=center;fontSize=14;" vertex="1" parent="1">
          <mxGeometry x="1390" y="50" width="160" height="236" as="geometry" />
        </mxCell>
        <mxCell id="PT5gaRFyH0BLPBNkBBfy-78" value="Id: PK" style="text;strokeColor=none;fillColor=none;spacingLeft=4;spacingRight=4;overflow=hidden;rotatable=0;points=[[0,0.5],[1,0.5]];portConstraint=eastwest;fontSize=12;whiteSpace=wrap;html=1;" vertex="1" parent="PT5gaRFyH0BLPBNkBBfy-77">
          <mxGeometry y="26" width="160" height="30" as="geometry" />
        </mxCell>
        <mxCell id="PT5gaRFyH0BLPBNkBBfy-79" value="Id_engenheiro: FK" style="text;strokeColor=none;fillColor=none;spacingLeft=4;spacingRight=4;overflow=hidden;rotatable=0;points=[[0,0.5],[1,0.5]];portConstraint=eastwest;fontSize=12;whiteSpace=wrap;html=1;" vertex="1" parent="PT5gaRFyH0BLPBNkBBfy-77">
          <mxGeometry y="56" width="160" height="30" as="geometry" />
        </mxCell>
        <mxCell id="PT5gaRFyH0BLPBNkBBfy-80" value="Nome: Varchar()" style="text;strokeColor=none;fillColor=none;spacingLeft=4;spacingRight=4;overflow=hidden;rotatable=0;points=[[0,0.5],[1,0.5]];portConstraint=eastwest;fontSize=12;whiteSpace=wrap;html=1;" vertex="1" parent="PT5gaRFyH0BLPBNkBBfy-77">
          <mxGeometry y="86" width="160" height="30" as="geometry" />
        </mxCell>
        <mxCell id="PT5gaRFyH0BLPBNkBBfy-82" value="Tamanho: Number" style="text;strokeColor=none;fillColor=none;spacingLeft=4;spacingRight=4;overflow=hidden;rotatable=0;points=[[0,0.5],[1,0.5]];portConstraint=eastwest;fontSize=12;whiteSpace=wrap;html=1;" vertex="1" parent="PT5gaRFyH0BLPBNkBBfy-77">
          <mxGeometry y="116" width="160" height="30" as="geometry" />
        </mxCell>
        <mxCell id="PT5gaRFyH0BLPBNkBBfy-83" value="Extensão: Varchar()" style="text;strokeColor=none;fillColor=none;spacingLeft=4;spacingRight=4;overflow=hidden;rotatable=0;points=[[0,0.5],[1,0.5]];portConstraint=eastwest;fontSize=12;whiteSpace=wrap;html=1;" vertex="1" parent="PT5gaRFyH0BLPBNkBBfy-77">
          <mxGeometry y="146" width="160" height="30" as="geometry" />
        </mxCell>
        <mxCell id="PT5gaRFyH0BLPBNkBBfy-84" value="Data: Date" style="text;strokeColor=none;fillColor=none;spacingLeft=4;spacingRight=4;overflow=hidden;rotatable=0;points=[[0,0.5],[1,0.5]];portConstraint=eastwest;fontSize=12;whiteSpace=wrap;html=1;" vertex="1" parent="PT5gaRFyH0BLPBNkBBfy-77">
          <mxGeometry y="176" width="160" height="30" as="geometry" />
        </mxCell>
        <mxCell id="PT5gaRFyH0BLPBNkBBfy-85" value="Arquivo: Varchar()" style="text;strokeColor=none;fillColor=none;spacingLeft=4;spacingRight=4;overflow=hidden;rotatable=0;points=[[0,0.5],[1,0.5]];portConstraint=eastwest;fontSize=12;whiteSpace=wrap;html=1;" vertex="1" parent="PT5gaRFyH0BLPBNkBBfy-77">
          <mxGeometry y="206" width="160" height="30" as="geometry" />
        </mxCell>
      </root>
    </mxGraphModel>
  </diagram>
</mxfile>
